<svg width="40" height="41" viewBox="0 0 40 41" fill="none" xmlns="http://www.w3.org/2000/svg">
<g clip-path="url('#clip0_1505_16631')">
<g clip-path="url('#clip1_1505_16631')">
<path d="M6.24998 23.9374V5.18749C6.24998 3.46164 7.64912 2.0625 9.37497 2.0625H4.68749C2.96163 2.0625 1.5625 3.46164 1.5625 5.18749V23.9374C1.5625 25.6633 2.96163 27.0624 4.68749 27.0624H9.37497C7.64912 27.0624 6.24998 25.6633 6.24998 23.9374Z" fill="#F1F7E6"></path>
<path d="M35.3124 0.5H4.68748C2.1028 0.5 0 2.6028 0 5.18748V23.9374C0 26.5221 2.1028 28.6249 4.68748 28.6249H18.4374V31.8511L9.75824 37.6373C9.04028 38.1159 8.84622 39.086 9.32489 39.8041C9.80348 40.522 10.7736 40.7161 11.4917 40.2374L18.4374 35.6069V38.9374C18.4374 39.8003 19.137 40.4998 19.9999 40.4998C20.8629 40.4998 21.5624 39.8003 21.5624 38.9374V35.6069L28.5082 40.2374C29.2236 40.7143 30.1945 40.5247 30.675 39.8041C31.1536 39.086 30.9596 38.1159 30.2416 37.6373L21.5624 31.8511V28.6249H35.3124C37.897 28.6249 39.9998 26.5221 39.9998 23.9374V5.18748C39.9998 2.6028 37.897 0.5 35.3124 0.5ZM36.8749 23.9374C36.8749 24.799 36.1739 25.4999 35.3124 25.4999H4.68748C3.82592 25.4999 3.12499 24.799 3.12499 23.9374V5.18748C3.12499 4.32592 3.82592 3.62499 4.68748 3.62499H35.3124C36.1739 3.62499 36.8749 4.32592 36.8749 5.18748V23.9374Z" fill="#87BC25"></path>
<path d="M32.6893 8.12288C32.6697 8.10328 32.6486 8.08609 32.6283 8.06773C31.7846 7.25289 30.6376 6.75 29.3748 6.75H26.2498C25.3869 6.75 24.6873 7.44953 24.6873 8.31249C24.6873 9.17546 25.3869 9.87499 26.2498 9.87499H28.7276L21.1048 17.4979C20.8097 17.793 20.4173 17.9556 19.9999 17.9556C19.5826 17.9556 19.1902 17.7931 18.8951 17.4979L17.0645 15.6673C16.1792 14.782 15.0021 14.2944 13.75 14.2944C12.4979 14.2944 11.3207 14.782 10.4354 15.6673C10.4207 15.6822 10.4061 15.6972 10.3919 15.7126L6.66412 19.7529C6.07897 20.3871 6.11873 21.3756 6.75295 21.9608C7.38849 22.5472 8.37693 22.5049 8.96091 21.872L12.6638 17.8586C12.9567 17.5751 13.3414 17.4193 13.75 17.4193C14.1673 17.4193 14.5597 17.5818 14.8548 17.877L16.6854 19.7076C17.5708 20.5929 18.7479 21.0805 19.9999 21.0805C21.252 21.0805 22.4291 20.5929 23.3144 19.7076L30.9374 12.0847V14.5625C30.9374 15.4254 31.6369 16.125 32.4999 16.125C33.3628 16.125 34.0624 15.4254 34.0624 14.5625V11.4375C34.0624 10.1747 33.5595 9.02773 32.7446 8.18398C32.7262 8.16359 32.709 8.14257 32.6893 8.12288Z" fill="#FCCC1D"></path>
</g>
</g>
<defs>
<clipPath id="clip0_1505_16631">
<rect width="40" height="40" fill="white" transform="translate(0 0.5)"></rect>
</clipPath>
<clipPath id="clip1_1505_16631">
<rect width="40" height="40" fill="white" transform="translate(0 0.5)"></rect>
</clipPath>
</defs>
</svg>
