<svg width="48" height="49" viewBox="0 0 48 49" fill="none" xmlns="http://www.w3.org/2000/svg">
<rect y="0.666504" width="48" height="48" rx="8" fill="#87BC25"></rect>
<path d="M24 14.8223C27.2071 14.8223 27.5788 14.8329 28.8425 14.8966C30.0106 14.9497 30.6478 15.1408 31.0726 15.3108C31.6354 15.5231 32.0283 15.7886 32.4531 16.2028C32.8779 16.6276 33.1327 17.0205 33.3451 17.5833C33.5044 18.0081 33.7062 18.6453 33.7593 19.8134C33.8124 21.0771 33.8336 21.4594 33.8336 24.6559C33.8336 27.8523 33.823 28.2346 33.7593 29.4984C33.7062 30.6665 33.515 31.3037 33.3451 31.7285C33.1327 32.2913 32.8673 32.6842 32.4531 33.109C32.0389 33.5338 31.6354 33.7886 31.0726 34.001C30.6478 34.1603 30.0106 34.3621 28.8425 34.4152C27.5788 34.4683 27.1965 34.4895 24 34.4895C20.8035 34.4895 20.4212 34.4789 19.1575 34.4152C17.9894 34.3621 17.3522 34.1709 16.9274 34.001C16.3646 33.7886 15.9717 33.5231 15.5469 33.109C15.1221 32.6842 14.8673 32.2913 14.6549 31.7285C14.4956 31.3037 14.2938 30.6665 14.2407 29.4984C14.1876 28.2346 14.1664 27.8523 14.1664 24.6559C14.1664 21.4594 14.177 21.0771 14.2407 19.8134C14.2938 18.6453 14.485 18.0081 14.6549 17.5833C14.8673 17.0205 15.1327 16.6276 15.5469 16.2028C15.9717 15.778 16.3646 15.5231 16.9274 15.3108C17.3522 15.1515 17.9894 14.9497 19.1575 14.8966C20.4212 14.8435 20.8035 14.8223 24 14.8223ZM24 12.6665C20.7398 12.6665 20.3363 12.6771 19.0513 12.7408C17.777 12.7939 16.9062 13.0063 16.1416 13.3037C15.3558 13.6116 14.6867 14.0152 14.0177 14.6842C13.3487 15.3532 12.9451 16.0223 12.6372 16.8081C12.3398 17.5727 12.1381 18.4435 12.085 19.7178C12.0212 20.9922 12.0106 21.4063 12.0106 24.6665C12.0106 27.9267 12.0212 28.3302 12.085 29.6152C12.1381 30.8895 12.3504 31.7603 12.6372 32.5249C12.9451 33.3108 13.3487 33.9798 14.0177 34.6488C14.6867 35.3178 15.3558 35.7214 16.1416 36.0293C16.9062 36.3267 17.777 36.5285 19.0513 36.5922C20.3257 36.6453 20.7398 36.6665 24 36.6665C27.2602 36.6665 27.6637 36.6559 28.9487 36.5922C30.223 36.5391 31.0938 36.3267 31.8584 36.0293C32.6443 35.7214 33.3133 35.3178 33.9823 34.6488C34.6513 33.9798 35.0549 33.3108 35.3628 32.5249C35.6602 31.7603 35.8619 30.8895 35.915 29.6152C35.9681 28.3408 35.9894 27.9267 35.9894 24.6665C35.9894 21.4063 35.9788 21.0028 35.915 19.7178C35.8619 18.4435 35.6496 17.5727 35.3628 16.8081C35.0549 16.0223 34.6513 15.3532 33.9823 14.6842C33.3133 14.0152 32.6443 13.6116 31.8584 13.3037C31.0938 13.0063 30.223 12.8046 28.9487 12.7408C27.6743 12.6877 27.2602 12.6665 24 12.6665Z" fill="white"></path>
<path d="M24 18.4966C20.6018 18.4966 17.8407 21.2576 17.8407 24.6559C17.8407 28.0541 20.6018 30.8152 24 30.8152C27.3982 30.8152 30.1593 28.0541 30.1593 24.6559C30.1593 21.2576 27.3982 18.4966 24 18.4966ZM24 28.6488C21.7911 28.6488 20.0071 26.8541 20.0071 24.6559C20.0071 22.4576 21.8018 20.663 24 20.663C26.1982 20.663 27.9929 22.4576 27.9929 24.6559C27.9929 26.8541 26.1982 28.6488 24 28.6488Z" fill="white"></path>
<path d="M31.8372 18.2524C31.8372 19.0488 31.1894 19.6966 30.3929 19.6966C29.5965 19.6966 28.9487 19.0488 28.9487 18.2524C28.9487 17.4559 29.5965 16.8081 30.3929 16.8081C31.1894 16.8081 31.8372 17.4559 31.8372 18.2524Z" fill="white"></path>
</svg>
